<svg t="1718551112980" class="icon" viewBox="0 0 1024 1024" version="1.1" xmlns="http://www.w3.org/2000/svg" p-id="10103" width="200" height="200"><path d="M785.706667 474.88c17.493333 5.12 22.4 17.28 20.48 34.346667-7.466667 67.626667-14.293333 135.466667-21.76 203.093333-2.133333 18.773333-5.12 37.333333-30.08 38.613333H269.44c-20.906667-1.28-30.293333-11.306667-32.213333-33.066666-6.4-69.76-14.08-139.52-21.973334-209.066667-2.133333-19.2 3.626667-30.72 23.253334-33.92h547.2z m-167.68 137.813333c0.213333-52.906667-41.386667-95.146667-94.506667-95.573333-53.12-0.426667-95.786667 40.96-96.64 93.44-0.64 53.546667 42.666667 98.133333 95.786667 97.92 52.266667-0.213333 95.36-43.306667 95.36-95.786667z" fill="#A67C52" p-id="10104"></path><path d="M269.44 750.933333h484.906667c-7.466667 66.986667-14.506667 133.973333-22.4 200.96-4.266667 36.906667-19.626667 50.346667-57.386667 50.56-108.586667 0.213333-217.386667 0.426667-325.973333 0-38.826667-0.213333-53.546667-14.506667-57.6-52.906666-7.04-66.346667-14.293333-132.48-21.546667-198.613334zM785.706667 474.88H238.293333c-7.04-62.293333-13.866667-124.373333-20.906666-186.666667 36.906667-0.426667 73.6-1.066667 110.506666-1.066666 159.573333 0.213333 319.146667 0.64 478.72 1.066666-7.04 62.08-13.866667 124.373333-20.906666 186.666667z" fill="#E2D7CF" p-id="10105"></path><path d="M178.133333 286.72c-8.533333-0.853333-22.4 3.84-23.04-10.453333-0.426667-11.093333-9.386667-26.666667 10.453334-33.066667 13.866667-4.48 8.32-17.706667 8.533333-27.52 0.853333-56.746667 0.64-56.746667 57.6-55.893333 1.706667 0 372.266667 0.213333 555.733333 0.213333 61.653333-1.493333 61.653333-1.493333 62.72 58.24 0.213333 10.88-2.133333 21.546667 13.44 27.306667 13.013333 4.906667 6.4 20.053333 5.973334 30.506666-0.213333 11.52-10.666667 9.6-18.133334 10.026667-14.933333 1.28-660.266667 2.133333-673.28 0.64z" fill="#303049" p-id="10106"></path><path d="M787.2 160.213333H236.8c5.973333-27.306667 13.013333-54.4 17.706667-82.133333 3.2-18.133333 11.52-24.106667 29.866666-23.893333 99.84 0.853333 199.68 0.64 299.306667 0.213333 5.546667 0 10.026667 0.213333 38.826667 0.213333 7.04 0 23.04-17.92 32.64-29.44 4.266667-5.12 11.733333-5.12 16-0.213333l23.466666 27.306667s43.093333 2.346667 45.013334 2.133333c18.56-1.493333 26.666667 5.76 29.866666 23.893333 4.693333 27.52 11.733333 54.613333 17.706667 81.92z" fill="#424259" p-id="10107"></path><path d="M618.026667 612.693333c-0.213333 52.266667-43.306667 95.573333-95.36 95.786667-53.12 0.213333-96.426667-44.16-95.786667-97.92 0.64-52.693333 43.52-93.866667 96.64-93.44 53.12 0.426667 94.72 42.666667 94.506667 95.573333z" fill="#DBCCC1" p-id="10108"></path><path d="M495.573333 683.093333c-3.2-0.64-6.4-0.853333-9.386666-1.92-17.493333-5.76-26.24-18.346667-28.586667-36.053333-1.92-14.506667 1.28-28.16 7.04-41.386667 8.746667-20.053333 22.613333-36.266667 40.746667-48.213333 13.013333-8.746667 27.52-13.653333 43.52-13.013333 12.373333 0.64 22.826667 5.546667 30.293333 15.573333 5.333333 7.253333 7.893333 15.573333 8.533333 24.533333 1.28 18.773333-4.48 35.84-14.08 51.626667-9.173333 15.146667-21.333333 27.733333-36.693333 37.12-9.6 5.76-19.84 9.813333-31.146667 11.306667-0.64 0-1.066667 0.213333-1.706666 0.426666h-8.533334z m76.16-113.28c-0.64-0.426667-1.066667-0.64-1.28-0.64-12.373333-4.693333-23.68-2.773333-34.346666 4.906667-9.813333 7.253333-15.786667 17.28-20.693334 27.946667-4.266667 8.746667-6.613333 18.133333-10.24 27.093333-5.546667 13.226667-13.44 24.533333-28.373333 28.8 0.213333 0.213333 0.426667 0.426667 0.853333 0.64 10.453333 4.48 20.266667 3.2 29.44-3.626667 7.466667-5.76 12.373333-13.44 16.213334-21.76 6.186667-13.013333 10.666667-26.666667 17.066666-39.466666 3.84-7.253333 8.533333-13.653333 15.786667-17.706667 4.693333-2.986667 9.813333-4.693333 15.573333-6.186667z" fill="#754C24" p-id="10109"></path></svg>