<svg t="1718551231826" class="icon" viewBox="0 0 1024 1024" version="1.1" xmlns="http://www.w3.org/2000/svg"
  p-id="18079" width="200" height="200">
  <path
    d="M841.5232 128c45.6704 0 62.208 4.7616 78.848 13.6704 16.7424 8.9088 29.8496 22.016 38.7584 38.7072 8.9088 16.6912 13.6704 33.28 13.6704 78.848v351.8976c0 45.6704-4.7616 62.208-13.6704 78.848-8.9088 16.7424-22.016 29.8496-38.7072 38.7584-16.6912 8.9088-33.28 13.6704-78.848 13.6704H182.4256c-45.6704 0-62.208-4.7616-78.848-13.6704a93.0304 93.0304 0 0 1-38.7584-38.7072c-8.9088-16.6912-13.6704-33.28-13.6704-78.848V259.2256c0-45.6704 4.7616-62.208 13.6704-78.848 8.9088-16.7424 22.016-29.8496 38.7072-38.7584 16.6912-8.9088 33.28-13.6704 78.848-13.6704h659.0976zM469.1968 314.2656C444.416 296.704 409.6 313.856 409.6 343.6544v183.0912c0 29.7472 34.816 46.9504 59.5968 29.3888l129.7408-91.5456a35.7376 35.7376 0 0 0 0-58.7776z"
    fill="#ffb7c5" opacity=".9" p-id="18080"></path>
  <path d="M716.8 832a38.4 38.4 0 0 1 5.2224 76.4416L716.8 908.8H307.2a38.4 38.4 0 0 1-5.2224-76.4416L307.2 832h409.6z"
    fill="#ffb7c5" opacity=".9" p-id="18081"></path>
</svg>